<?xml version="1.0" encoding="utf-8"?>
<svg width="1024px" height="1024px" viewBox="0 0 1024 1024" version="1.1" xmlns:xlink="http://www.w3.org/1999/xlink" xmlns="http://www.w3.org/2000/svg">
  <defs>
    <path d="M0 0L819.2 0L819.2 819.2L0 819.2L0 0Z" id="path_1" />
    <rect width="1024" height="1024" id="artboard_1" />
    <clipPath id="clip_1">
      <use xlink:href="#artboard_1" clip-rule="evenodd" />
    </clipPath>
    <clipPath id="mask_1">
      <use xlink:href="#path_1" />
    </clipPath>
  </defs>
  <g id="Fanoos" clip-path="url(#clip_1)">
    <use xlink:href="#artboard_1" stroke="none" fill="#0284C7" />
    <g id="svg" transform="translate(102.400024 102.399994)">
      <path d="M0 0L819.2 0L819.2 819.2L0 819.2L0 0Z" id="Background" fill="none" fill-rule="evenodd" stroke="none" />
      <g clip-path="url(#mask_1)">
        <path d="M409.6 38.4C393.44 38.4 378.88 41.472 366.88 47.424C355.04 53.36 344 63.552 344 78.4C344 93.248 355.04 103.44 366.88 109.376C375.2 113.504 384.8 116.208 395.2 117.504L395.2 135.552L424 135.552L424 117.504C434.4 116.208 444 113.504 452.32 109.376C464.16 103.44 475.2 93.248 475.2 78.4C475.2 63.552 464.16 53.36 452.32 47.424C440.32 41.472 425.76 38.4 409.6 38.4M409.6 67.2C421.76 67.2 432.64 69.856 439.36 73.184C444.64 75.792 445.92 77.936 446.24 78.4C446.4 78.24 446.4 78.24 446.4 78.4C446.4 78.56 446.4 78.56 446.24 78.4C445.92 78.864 444.64 81.008 439.36 83.616C432.64 86.944 421.76 89.6 409.6 89.6C397.44 89.6 386.56 86.944 379.84 83.616C374.56 81.008 373.28 78.864 372.96 78.4C372.8 78.56 372.8 78.56 372.8 78.4C372.8 78.24 372.8 78.24 372.96 78.4C373.28 77.936 374.56 75.792 379.84 73.184C386.56 69.856 397.44 67.2 409.6 67.2M344.16 164.32L325.44 243.2L493.76 243.2L475.04 164.32L344.16 164.32ZM313.92 167.04C303.2 167.52 292.8 168.32 282.72 169.76C258.88 173.12 236.48 180 220.16 196.16C215.2 201.28 213.92 205.44 211.84 211.04C209.76 216.64 207.84 223.36 205.76 231.2C201.92 246.88 197.92 267.36 193.76 291.2C185.76 338.88 177.76 399.84 171.2 460.96C164.8 521.92 160 582.88 158.416 630.72C157.6 654.56 157.568 675.04 158.624 691.04C159.152 699.04 159.936 705.76 161.12 711.68C162.4 717.6 163.2 722.72 168.96 728.64C180.32 739.84 193.6 746.24 207.36 749.92L218.24 722.88C207.2 720.48 198.24 716.48 190.56 709.28C190.4 708.64 189.76 707.52 189.28 705.76C188.64 702.08 187.84 696.32 187.36 689.12C186.4 674.88 186.4 655.04 187.2 631.68C188.8 585.12 193.6 524.48 200 463.84C206.24 403.36 214.24 342.72 222.24 296C226.08 272.64 230.08 252.64 233.76 238.24C235.52 231.04 237.28 225.12 238.88 221.12C239.84 218.24 241.12 216.32 241.28 216.16C250.72 207.04 266.4 201.12 286.88 198.24C293.12 197.28 300 196.64 306.88 196.32L313.92 167.04ZM505.28 167.04L512.16 196.32C519.2 196.64 525.92 197.28 532.32 198.24C552.8 201.12 568.48 207.04 577.92 216.16C578.08 216.32 579.36 218.24 580.32 221.12C581.92 225.12 583.68 231.04 585.44 238.24C589.12 252.64 593.12 272.64 596.96 296C604.96 342.72 612.96 403.36 619.2 463.84C625.6 524.48 630.4 585.12 632 631.68C632.8 655.04 632.8 674.88 631.84 689.12C631.36 696.32 630.56 702.08 629.92 705.76C629.44 707.52 628.8 708.64 628.64 709.28C620.96 716.48 612 720.48 600.96 722.88L611.84 749.92C625.6 746.24 638.88 739.84 650.24 728.64C656 722.72 656.8 717.6 658.08 711.68C659.2 705.76 660 699.04 660.64 691.04C661.6 675.04 661.6 654.56 660.8 630.72C659.2 582.88 654.4 521.92 648 460.96C641.44 399.84 633.44 338.88 625.44 291.2C621.28 267.36 617.28 246.88 613.44 231.2C611.36 223.36 609.44 216.64 607.36 211.04C605.28 205.44 604 201.28 599.04 196.16C582.72 180 560.32 173.12 536.48 169.76C526.4 168.32 515.84 167.52 505.28 167.04M341.12 272C336.48 279.84 322.56 303.68 306.56 337.76C341.6 354.24 376.64 378.72 409.6 406.08C442.72 378.72 477.6 354.24 512.64 337.76C496.64 303.68 482.72 279.84 478.08 272L341.12 272ZM295.04 364.32C279.04 403.52 266.88 446.4 270.24 473.44C271.84 485.76 281.92 504.8 294.4 523.04C319.36 491.68 351.52 457.12 387.36 425.12C357.12 400.48 325.12 378.88 295.04 364.32M524.16 364.32C494.08 379.04 462.08 400.48 431.84 425.12C467.68 457.28 499.84 491.84 524.8 523.04C537.28 504.8 547.36 485.76 548.96 473.44C552.32 446.4 540.16 403.52 524.16 364.32M409.6 444C371.68 477.6 337.28 514.72 312.48 546.72C324.96 561.76 334.72 571.68 338.88 576L480.32 576C484.48 571.68 494.24 561.76 506.72 546.72C481.92 514.88 447.52 477.44 409.6 444M360.64 604.8C364.32 612.48 366.4 620.48 366.4 628.8C366.4 637.12 364.32 645.12 360.64 652.8L458.56 652.8C454.88 645.12 452.8 637.12 452.8 628.8C452.8 620.48 454.88 612.48 458.56 604.8L360.64 604.8ZM265.76 681.6L226.08 780.8L593.12 780.8L553.44 681.6L265.76 681.6Z" id="Shape" fill="#F0F9FF" fill-rule="evenodd" stroke="none" />
      </g>
    </g>
  </g>
</svg>