<?xml version="1.0" encoding="utf-8"?>
<svg width="1024px" height="1024px" viewBox="0 0 1024 1024" version="1.1" xmlns:xlink="http://www.w3.org/1999/xlink" xmlns="http://www.w3.org/2000/svg">
  <defs>
    <rect width="1024" height="1024" id="artboard_1" />
    <clipPath id="clip_1">
      <use xlink:href="#artboard_1" clip-rule="evenodd" />
    </clipPath>
  </defs>
  <g id="Yorozu" clip-path="url(#clip_1)">
    <use xlink:href="#artboard_1" stroke="none" fill="#0284C7" />
    <g id="万" fill="#FFFFFF" transform="translate(112 28)">
      <path d="M160.938 257.633L60.1563 259.195Q53.125 259.195 51.5625 257.633Q50.3906 256.07 50.3906 250.602L50.3906 184.586Q50.3906 178.336 52.3438 177.164Q53.9062 175.992 60.1563 175.992L160.938 177.555L642.188 177.555L744.141 175.992Q751.953 175.992 751.953 184.586L751.953 250.602Q751.953 259.195 744.141 259.195L642.188 257.633L364.844 257.633Q363.672 327.555 357.422 386.539L565.625 386.539L661.328 384.977Q670.312 384.977 670.313 393.961Q670.312 430.68 668.75 472.086Q662.109 631.852 641.406 727.945Q628.125 791.227 593.359 816.227Q562.891 838.492 507.031 838.492Q462.891 838.492 432.031 835.367Q412.891 833.414 408.984 828.727Q405.469 824.82 401.563 805.68Q394.141 767.789 380.859 742.789Q445.313 752.945 496.875 752.945Q545.703 752.945 556.641 699.43Q575.781 608.023 580.078 466.617L346.484 466.617Q332.422 541.617 307.031 602.555Q250.391 747.086 121.484 834.586Q108.203 844.352 103.906 844.352Q99.6094 844.352 86.3281 827.555Q61.7188 799.43 34.375 784.977Q170.703 703.727 225.391 568.18Q271.484 459.195 275.781 257.633L160.938 257.633Z" />
    </g>
  </g>
</svg>