<svg xmlns="http://www.w3.org/2000/svg" viewBox="0 0 24 24"><linearGradient id="a" x1="50%" x2="50%" y1="99%"><stop stop-color="#1c9df0"/><stop offset="99%" stop-color="#1cc7f0"/></linearGradient><linearGradient id="b" x1="50%" x2="50%" y1="99%"><stop stop-color="#1c9df0"/><stop offset="99%" stop-color="#1caaef"/></linearGradient><g stroke="#FEFEFE" stroke-width=".8"><circle cx="12" cy="12" r="11.6" fill="url(#a)"/><path fill="url(#b)" d="M12 15.4H4q-2.7-.1-3 2.7v5.5h11"/><path fill="none" stroke-linecap="round" stroke-width=".25" d="M1 21.7q1-2.2 3-2.3h3"/><g fill="#0F1318"><circle cx="12" cy="12" r="3.4"/><path d="M23.6 2.5q-.1-2-2.1-2.1h-5.3v4.7q.2 2.6 2.8 2.8h4.6z"/></g><path d="M23.6 8v4M16 .4h-4"/></g><path fill="#333739" d="M23.2 7.4V2.6q0-.9-.5-1.3l-5.5 5.5q.6.6 1.8.7"/><path stroke="#1CB5F0" d="M22.7 12V8.3"/><path stroke="#1CC7F0" d="M12 1.3h3.8"/></svg>